<svg xmlns="http://www.w3.org/2000/svg" viewBox="0 0 100 100">
  <defs>
    <radialGradient id="sun" cx="50%" cy="42%" r="62%">
      <stop offset="0" stop-color="#ffd27a"/><stop offset=".5" stop-color="#ff9e5e"/><stop offset="1" stop-color="#ff5e62"/>
    </radialGradient>
    <symbol id="buoy" viewBox="0 0 100 100">
      <circle cx="50" cy="50" r="46" fill="#fff"/>
      <circle cx="50" cy="50" r="34" fill="none" stroke="#fff" stroke-width="22"/>
      <g transform="rotate(45 50 50)">
        <circle cx="50" cy="50" r="34" fill="none" stroke="#e5443b" stroke-width="22" stroke-dasharray="26.7 26.7"/>
      </g>
      <circle cx="50" cy="50" r="45" fill="none" stroke="#173a5e" stroke-width="3"/>
      <circle cx="50" cy="50" r="23" fill="none" stroke="#173a5e" stroke-width="3"/>
    </symbol>
    <symbol id="miniship" viewBox="0 0 100 100">
      <path d="M28 60 H72 L68 70 Q67 74 61 74 H39 Q33 74 32 70 Z" fill="#fff" stroke="#173a5e" stroke-width="2.4"/>
      <rect x="38" y="48" width="24" height="12" fill="#fff" stroke="#173a5e" stroke-width="2.4"/>
      <rect x="46" y="40" width="9" height="8" fill="#ff7a4d" stroke="#173a5e" stroke-width="2"/>
      <circle cx="44" cy="54" r="1.6" fill="#173a5e"/><circle cx="50" cy="54" r="1.6" fill="#173a5e"/><circle cx="56" cy="54" r="1.6" fill="#173a5e"/>
    </symbol>
  </defs>
  <rect x="0" y="0" width="100" height="100" rx="24" fill="#46bcd0"/>
  <g transform="translate(50 50) scale(0.86) translate(-50 -50)">
    <use href="#buoy"/>
    <g transform="translate(50 50) scale(0.5) translate(-50 -50)"><use href="#miniship"/></g>
  </g>
</svg>